<?xml version="1.0" encoding="UTF-8"?>
<!DOCTYPE svg PUBLIC "-//W3C//DTD SVG 1.1//EN" "http://www.w3.org/Graphics/SVG/1.1/DTD/svg11.dtd">
<!-- Creator: CorelDRAW X8 -->
<svg xmlns="http://www.w3.org/2000/svg" xml:space="preserve" width="128px" height="128px" version="1.1" style="shape-rendering:geometricPrecision; text-rendering:geometricPrecision; image-rendering:optimizeQuality; fill-rule:evenodd; clip-rule:evenodd"
viewBox="0 0 128 128"
 xmlns:xlink="http://www.w3.org/1999/xlink">
 <defs>
  <style type="text/css">
   <![CDATA[
    .fil0 {fill:black}
    .fil1 {fill:black}
   ]]>
  </style>
 </defs>
 <g id="Слой_x0020_1">
  <metadata id="CorelCorpID_0Corel-Layer"/>
  <g id="_1453933300384">
   <g>
    <path class="fil0" d="M64 0c35,0 64,29 64,64 0,35 -29,64 -64,64 -35,0 -64,-29 -64,-64 0,-35 29,-64 64,-64zm44 20c-11,-11 -27,-18 -44,-18 -17,0 -33,7 -44,18 -11,11 -18,27 -18,44 0,17 7,33 18,44 11,11 27,18 44,18 17,0 33,-7 44,-18 11,-11 18,-27 18,-44 0,-17 -7,-33 -18,-44z"/>
   </g>
   <path class="fil1" d="M84 42l0 -12c-11,-4 -27,-1 -28,13 -1,8 0,15 0,15l-12 0 0 14 12 0 0 33 15 0 0 -33 11 0 2 -14 -13 0 0 -10c-1,-7 9,-6 13,-6zm4 4c-2,0 -14,-1 -13,2l0 6 14 0 -4 22 -10 0 0 33 -23 0 0 -33 -12 0 0 -22 12 0c0,-11 0,-22 11,-27 9,-4 17,-3 25,0l0 19z"/>
  </g>
 </g>
</svg>
