<?xml version="1.0" encoding="UTF-8"?>
<svg xmlns="http://www.w3.org/2000/svg" xmlns:xlink="http://www.w3.org/1999/xlink" viewBox="0 0 50 50" width="50px" height="50px">
<g id="surface39831787">
<path style=" stroke:none;fill-rule:nonzero;fill:rgb(0%,0%,0%);fill-opacity:1;" d="M 0 25 C 0 11.191406 11.191406 0 25 0 C 38.808594 0 50 11.191406 50 25 C 50 38.808594 38.808594 50 25 50 C 11.191406 50 0 38.808594 0 25 Z M 25 48 C 37.703125 48 48 37.703125 48 25 C 48 12.296875 37.703125 2 25 2 C 12.296875 2 2 12.296875 2 25 C 2 37.703125 12.296875 48 25 48 Z M 25 48 "/>
<path style=" stroke:none;fill-rule:nonzero;fill:rgb(0%,0%,0%);fill-opacity:1;" d="M 18.25 8.5 C 12.875 8.5 8.5 12.875 8.5 18.25 L 8.5 31.75 C 8.5 37.125 12.875 41.5 18.25 41.5 L 31.75 41.5 C 37.125 41.5 41.5 37.125 41.5 31.75 L 41.5 18.25 C 41.5 12.875 37.125 8.5 31.75 8.5 Z M 18.25 10 L 31.75 10 C 36.316406 10 40 13.683594 40 18.25 L 40 31.75 C 40 36.316406 36.316406 40 31.75 40 L 18.25 40 C 13.683594 40 10 36.316406 10 31.75 L 10 18.25 C 10 13.683594 13.683594 10 18.25 10 Z M 34 14.5 C 33.171875 14.5 32.5 15.171875 32.5 16 C 32.5 16.828125 33.171875 17.5 34 17.5 C 34.828125 17.5 35.5 16.828125 35.5 16 C 35.5 15.171875 34.828125 14.5 34 14.5 Z M 25 16.75 C 20.453125 16.75 16.75 20.453125 16.75 25 C 16.75 29.546875 20.453125 33.25 25 33.25 C 29.546875 33.25 33.25 29.546875 33.25 25 C 33.25 20.453125 29.546875 16.75 25 16.75 Z M 25 18.25 C 28.738281 18.25 31.75 21.261719 31.75 25 C 31.75 28.738281 28.738281 31.75 25 31.75 C 21.261719 31.75 18.25 28.738281 18.25 25 C 18.25 21.261719 21.261719 18.25 25 18.25 Z M 25 18.25 "/>
</g>
</svg>
