<?xml version="1.0" encoding="UTF-8"?>
<!DOCTYPE svg PUBLIC "-//W3C//DTD SVG 1.1//EN" "http://www.w3.org/Graphics/SVG/1.1/DTD/svg11.dtd">
<!-- Creator: CorelDRAW X8 -->
<svg xmlns="http://www.w3.org/2000/svg" xml:space="preserve" width="128px" height="128px" version="1.1" style="shape-rendering:geometricPrecision; text-rendering:geometricPrecision; image-rendering:optimizeQuality; fill-rule:evenodd; clip-rule:evenodd"
viewBox="0 0 128 128"
 xmlns:xlink="http://www.w3.org/1999/xlink">
 <defs>
  <style type="text/css">
   <![CDATA[
    .fil0 {fill:white}
    .fil1 {fill:white}
    .fil2 {fill:white;fill-rule:nonzero}
   ]]>
  </style>
 </defs>
 <g id="Слой_x0020_1">
  <metadata id="CorelCorpID_0Corel-Layer"/>
  <g id="_1555601826272">
   <g>
    <path class="fil0" d="M64 0c35,0 64,29 64,64 0,35 -29,64 -64,64 -35,0 -64,-29 -64,-64 0,-35 29,-64 64,-64zm44 20c-11,-11 -27,-18 -44,-18 -17,0 -33,7 -44,18 -11,11 -18,27 -18,44 0,17 7,33 18,44 11,11 27,18 44,18 17,0 33,-7 44,-18 11,-11 18,-27 18,-44 0,-17 -7,-33 -18,-44z"/>
   </g>
   <path class="fil1" d="M48 31c-12,0 -18,6 -19,18 0,11 0,22 0,32 1,12 7,19 19,19 11,1 21,1 32,0 12,0 18,-7 19,-19 0,-10 0,-21 0,-32 -1,-12 -7,-18 -19,-18 -11,-1 -21,-1 -32,0zm0 -4c-14,0 -22,8 -23,22 0,11 0,22 0,32 1,15 9,22 23,23 10,1 22,1 32,0 14,-1 22,-8 23,-23 0,-10 0,-22 0,-32 -1,-14 -9,-22 -23,-22 -10,-1 -22,-1 -32,0z"/>
   <path class="fil2" d="M64 47c-10,0 -18,8 -18,18 0,10 8,18 18,18 10,0 18,-8 18,-18 0,-10 -8,-18 -18,-18zm0 -4c12,0 22,10 22,22 0,12 -10,22 -22,22 -12,0 -22,-10 -22,-22 0,-12 10,-22 22,-22z"/>
   <path class="fil2" d="M91 44c0,4 -2,7 -6,7 -4,0 -7,-3 -7,-7 0,-3 3,-6 7,-6 4,0 6,3 6,6zm-4 0c0,-1 -1,-2 -2,-2 -2,0 -3,1 -3,2 0,2 1,3 3,3 1,0 2,-1 2,-3z"/>
   <path class="fil2" d="M53 65c0,6 5,11 11,11 6,0 11,-5 11,-11 0,-6 -5,-11 -11,-11 -6,0 -11,5 -11,11zm-4 0c0,-8 7,-15 15,-15 8,0 15,7 15,15 0,9 -7,15 -15,15 -8,0 -15,-6 -15,-15z"/>
  </g>
 </g>
</svg>
