<?xml version="1.0" encoding="UTF-8"?>
<!DOCTYPE svg PUBLIC "-//W3C//DTD SVG 1.1//EN" "http://www.w3.org/Graphics/SVG/1.1/DTD/svg11.dtd">
<!-- Creator: CorelDRAW X8 -->
<svg xmlns="http://www.w3.org/2000/svg" xml:space="preserve" width="128px" height="128px" version="1.1" style="shape-rendering:geometricPrecision; text-rendering:geometricPrecision; image-rendering:optimizeQuality; fill-rule:evenodd; clip-rule:evenodd"
viewBox="0 0 128 128"
 xmlns:xlink="http://www.w3.org/1999/xlink">
 <defs>
  <style type="text/css">
   <![CDATA[
    .fil0 {fill:white}
    .fil1 {fill:white}
   ]]>
  </style>
 </defs>
 <g id="Слой_x0020_1">
  <metadata id="CorelCorpID_0Corel-Layer"/>
  <g id="_1479335105504">
   <g>
    <path class="fil0" d="M64 0c35,0 64,29 64,64 0,35 -29,64 -64,64 -35,0 -64,-29 -64,-64 0,-35 29,-64 64,-64zm44 20c-11,-11 -27,-18 -44,-18 -17,0 -33,7 -44,18 -11,11 -18,27 -18,44 0,17 7,33 18,44 11,11 27,18 44,18 17,0 33,-7 44,-18 11,-11 18,-27 18,-44 0,-17 -7,-33 -18,-44z"/>
   </g>
   <path class="fil1" d="M102 34c-3,1 -7,3 -11,4 -7,-11 -30,-5 -28,15 -16,-1 -23,-7 -34,-17 -4,11 -2,15 5,21 -3,1 -5,0 -7,-1 0,8 6,15 13,16 -2,1 -5,0 -7,0 1,7 8,11 15,12 -5,5 -17,7 -24,7l1 1c27,16 66,0 71,-36 0,-2 0,-5 0,-7 2,-2 7,-6 8,-9 -2,1 -11,4 -9,3 3,-3 6,-6 7,-9zm-11 8l-2 0c-1,-2 -1,-3 -3,-4 -8,-4 -21,0 -19,14l1 5c-16,-1 -25,-3 -37,-14 -1,7 7,13 12,18l-11 0c4,8 13,8 20,9 -2,1 -11,6 -13,6 5,4 10,4 16,4 -5,8 -7,10 -16,13 26,6 52,-13 53,-41l0 -5c0,-1 -1,-1 -2,-1 0,-1 1,-2 1,-4z"/>
  </g>
 </g>
</svg>
